<svg id="Layer_1" data-name="Layer 1" xmlns="http://www.w3.org/2000/svg" xmlns:xlink="http://www.w3.org/1999/xlink" viewBox="0 0 285.6 171.9"><defs><style>.cls-1{fill:#fff;}.cls-2{fill:url(#linear-gradient);}.cls-3{fill:url(#linear-gradient-2);}.cls-4{fill:url(#linear-gradient-3);}.cls-5{fill:url(#linear-gradient-4);}</style><linearGradient id="linear-gradient" x1="55.22" y1="35.5" x2="86.9" y2="35.5" gradientTransform="matrix(1, 0, 0, -1, 0, 171.9)" gradientUnits="userSpaceOnUse"><stop offset="0" stop-color="#94c11e"/><stop offset="1" stop-color="#bdd102"/></linearGradient><linearGradient id="linear-gradient-2" x1="91.38" y1="35.55" x2="123.88" y2="35.55" xlink:href="#linear-gradient"/><linearGradient id="linear-gradient-3" x1="129.65" y1="35.45" x2="160.59" y2="35.45" xlink:href="#linear-gradient"/><linearGradient id="linear-gradient-4" x1="164.8" y1="35.85" x2="193.26" y2="35.85" xlink:href="#linear-gradient"/></defs><path class="cls-1" d="M118.8,93.2A43.61,43.61,0,0,0,98.5,77.8s12.6,12.3,16.8,23.9l-57.1-.1a2.88,2.88,0,0,0-2.9,2.8,2.76,2.76,0,0,0,2.9,2.8c13.7-.1,72.6-.4,81.1-.3A223.69,223.69,0,0,1,142.9,61a215.55,215.55,0,0,1,3.6,45.9c8.5-.1,67.3.2,81.1.3a2.88,2.88,0,0,0,2.9-2.8,2.76,2.76,0,0,0-2.9-2.8l-57.1.1c4.2-11.6,16.8-23.9,16.8-23.9A43.61,43.61,0,0,0,167,93.2c12.1-31.6,38.6-43.5,38.6-43.5a43.14,43.14,0,0,0-8.1,1.7,36.16,36.16,0,0,0-3.5,1.3,34.18,34.18,0,0,0-4.3,2.1c-.9.5-1.8,1-2.6,1.5-15,9.1-24.7,24.2-24.7,24.2C169.2,50.4,199,15.1,199,15.1,167.5,31.5,154.8,73,154.8,73a149.1,149.1,0,0,0-8.4-27.1c4.5-16.3,11.7-33,23.4-45.9-1.7,1.6-3.4,3.3-4.9,5-.4.4-.8.9-1.2,1.3-1.1,1.2-2.2,2.5-3.2,3.7l-2.1,2.7A132.55,132.55,0,0,0,143,38.1a133.17,133.17,0,0,0-15.6-25.6c-.6-.8-1.3-1.6-1.9-2.4-1-1.3-2.1-2.5-3.2-3.7s-2.2-2.5-3.4-3.7L116.2,0c11.7,12.9,18.9,29.5,23.4,45.9A146.54,146.54,0,0,0,131.2,73S118.5,31.6,87,15.1c0,0,29.8,35.3,36.6,65.4,0,0-9.6-14.7-24.2-23.9-1-.6-2.1-1.2-3.1-1.8-1.4-.8-2.8-1.4-4.3-2.1-1.2-.5-2.4-.9-3.6-1.3a43.83,43.83,0,0,0-8-1.7,83.31,83.31,0,0,1,38.4,43.5"/><path class="cls-1" d="M2.5,159.9a.22.22,0,0,1,.2.2L5.4,169a.1.1,0,0,0,.1.1h.1c.1,0,.1,0,.1-.1l2.7-8.2a1.58,1.58,0,0,1,.5-.8,1.45,1.45,0,0,1,.7-.2h1.6a1.55,1.55,0,0,1,.8.2,1.28,1.28,0,0,1,.5.7l2.8,8.2a.1.1,0,0,0,.1.1h.1c.1,0,.1,0,.1-.1l2.6-8.9c0-.1.1-.1.1-.2h2.4c.1,0,.1,0,.2.1v.3l-3.2,10a3,3,0,0,1-.5,1,1,1,0,0,1-.8.3H14.5a1.14,1.14,0,0,1-.8-.3,1.87,1.87,0,0,1-.5-1l-2.6-7.9a.1.1,0,0,0-.1-.1h-.1c-.1,0-.1,0-.1.1l-2.6,7.9a3,3,0,0,1-.5,1,1,1,0,0,1-.8.3H4a.76.76,0,0,1-.4-.2,1.38,1.38,0,0,1-.3-.4,1.42,1.42,0,0,1-.2-.6L0,160.3V160c0-.1.1-.1.2-.1Z"/><path class="cls-1" d="M43.4,159.9a.37.37,0,0,1,.4.4v4.3h7.8v-4.3a.37.37,0,0,1,.4-.4h1.8c.3,0,.4.1.4.4v10.9a.37.37,0,0,1-.4.4H52a.37.37,0,0,1-.4-.4v-4.4H43.8v4.4a.37.37,0,0,1-.4.4H41.6c-.3,0-.4-.1-.4-.4V160.3a.37.37,0,0,1,.4-.4Z"/><path class="cls-1" d="M84.6,159.9a13.79,13.79,0,0,1,2.2.2,3.06,3.06,0,0,1,2.2,2.2,6,6,0,0,1,.3,2v2.9a5.62,5.62,0,0,1-.3,2,3.22,3.22,0,0,1-.8,1.4,6.38,6.38,0,0,1-1.4.8,7.16,7.16,0,0,1-2.2.2H79.5a11.49,11.49,0,0,1-2.1-.2,3.06,3.06,0,0,1-2.2-2.2,6,6,0,0,1-.3-2v-2.9a5.62,5.62,0,0,1,.3-2,3.22,3.22,0,0,1,.8-1.4,3.92,3.92,0,0,1,1.4-.8,6.82,6.82,0,0,1,2.1-.2Zm-7.3,7a3.75,3.75,0,0,0,.1,1.1,1.53,1.53,0,0,0,1.1,1.1,3.42,3.42,0,0,0,1.1.1h4.9a3.75,3.75,0,0,0,1.1-.1,1.53,1.53,0,0,0,1.1-1.1,3.75,3.75,0,0,0,.1-1.1v-2.5a3.75,3.75,0,0,0-.1-1.1,1.53,1.53,0,0,0-1.1-1.1,3.42,3.42,0,0,0-1.1-.1H79.6a3.75,3.75,0,0,0-1.1.1,1.53,1.53,0,0,0-1.1,1.1,3.75,3.75,0,0,0-.1,1.1Z"/><path class="cls-1" d="M112.1,159.9a.37.37,0,0,1,.4.4v6.6a3.75,3.75,0,0,0,.1,1.1,1.53,1.53,0,0,0,1.1,1.1,3.42,3.42,0,0,0,1.1.1h6.7a.37.37,0,0,1,.4.4v1.6a.37.37,0,0,1-.4.4h-6.8a11.49,11.49,0,0,1-2.1-.2,3.06,3.06,0,0,1-2.2-2.2,6,6,0,0,1-.3-2v-6.9a.37.37,0,0,1,.4-.4Z"/><path class="cls-1" d="M153.7,159.9c.3,0,.4.1.4.4v1.6a.37.37,0,0,1-.4.4h-7.3a3.75,3.75,0,0,0-1.1.1,1.53,1.53,0,0,0-1.1,1.1,3.75,3.75,0,0,0-.1,1.1v.2h9.4a.37.37,0,0,1,.4.4v1.3a.37.37,0,0,1-.4.4h-9.4v.3a3.75,3.75,0,0,0,.1,1.1,1.53,1.53,0,0,0,1.1,1.1,3.42,3.42,0,0,0,1.1.1h7.3c.3,0,.4.1.4.4v1.6a.37.37,0,0,1-.4.4h-7.3a11.49,11.49,0,0,1-2.1-.2,3.06,3.06,0,0,1-2.2-2.2,6,6,0,0,1-.3-2v-2.9a5.62,5.62,0,0,1,.3-2,3.22,3.22,0,0,1,.8-1.4,6.38,6.38,0,0,1,1.4-.8,6.82,6.82,0,0,1,2.1-.2h7.3Z"/><path class="cls-1" d="M186.2,159.9a.37.37,0,0,1,.4.4v1.6a.37.37,0,0,1-.4.4h-8.3a.75.75,0,0,0-.9.9v.6a.8.8,0,0,0,.9.9h6.2a2.92,2.92,0,0,1,2.2.7,2.82,2.82,0,0,1,.7,2.1v1.3a2.72,2.72,0,0,1-.7,2,2.92,2.92,0,0,1-2.2.7h-9.2c-.3,0-.4-.1-.4-.4v-1.6a.37.37,0,0,1,.4-.4h8.7a.75.75,0,0,0,.9-.9v-.7a.8.8,0,0,0-.9-.9h-6.2a2.92,2.92,0,0,1-2.2-.7,2.82,2.82,0,0,1-.7-2.1v-1.2a2.72,2.72,0,0,1,.7-2,2.92,2.92,0,0,1,2.2-.7Z"/><path class="cls-1" d="M214.6,159.9a2,2,0,0,1,1.1.3,2.09,2.09,0,0,1,.8,1l5.5,10a.19.19,0,0,1,0,.3c0,.1-.1.1-.2.1h-2.1a.52.52,0,0,1-.4-.2l-1.2-2.1h-7.8l-1.1,2.1a.52.52,0,0,1-.4.2h-2.2a.37.37,0,0,1-.3-.1v-.3l5.5-10a2.9,2.9,0,0,1,.8-1,1.61,1.61,0,0,1,.9-.3Zm-3.2,7.3h5.7l-2.6-4.9c0-.1-.1-.1-.2-.1h-.1c-.1,0-.1,0-.2.1Z"/><path class="cls-1" d="M243.6,159.9a.37.37,0,0,1,.4.4v6.6a3.75,3.75,0,0,0,.1,1.1,1.53,1.53,0,0,0,1.1,1.1,3.42,3.42,0,0,0,1.1.1H253a.37.37,0,0,1,.4.4v1.6a.37.37,0,0,1-.4.4h-6.8a11.49,11.49,0,0,1-2.1-.2,3.06,3.06,0,0,1-2.2-2.2,6,6,0,0,1-.3-2v-6.9a.37.37,0,0,1,.4-.4Z"/><path class="cls-1" d="M285.2,159.9c.3,0,.4.1.4.4v1.6a.37.37,0,0,1-.4.4h-7.3a3.75,3.75,0,0,0-1.1.1,1.53,1.53,0,0,0-1.1,1.1,3.75,3.75,0,0,0-.1,1.1v.2H285a.37.37,0,0,1,.4.4v1.3a.37.37,0,0,1-.4.4h-9.4v.3a3.75,3.75,0,0,0,.1,1.1,1.53,1.53,0,0,0,1.1,1.1,3.42,3.42,0,0,0,1.1.1h7.3c.3,0,.4.1.4.4v1.6a.37.37,0,0,1-.4.4h-7.3a11.49,11.49,0,0,1-2.1-.2,3.06,3.06,0,0,1-2.2-2.2,6,6,0,0,1-.3-2v-2.9a5.62,5.62,0,0,1,.3-2,3.22,3.22,0,0,1,.8-1.4,6.38,6.38,0,0,1,1.4-.8,6.82,6.82,0,0,1,2.1-.2h7.3Z"/><path class="cls-1" d="M18.5,128.8a17.44,17.44,0,0,1,4.3.4,6.7,6.7,0,0,1,2.8,1.4,4.94,4.94,0,0,1,1.5,2.4,12.3,12.3,0,0,1,.5,3.5v10.2a6.62,6.62,0,0,1-.1,1.5,1.35,1.35,0,0,1-.5.9,1.93,1.93,0,0,1-.9.5,5.72,5.72,0,0,1-1.4.1H6.6a10.88,10.88,0,0,1-2.8-.3,3.17,3.17,0,0,1-1.8-1,3.23,3.23,0,0,1-1-1.7,9,9,0,0,1-.3-2.5v-1.8a6.65,6.65,0,0,1,.3-2.1,3.36,3.36,0,0,1,1-1.6,5.24,5.24,0,0,1,1.8-1,11.43,11.43,0,0,1,2.8-.3H22.2v-.6a7.77,7.77,0,0,0-.2-1.6,1.9,1.9,0,0,0-.7-1.1,2.26,2.26,0,0,0-1.3-.6,11.49,11.49,0,0,0-2.1-.2H1.9c-.5,0-.7-.2-.7-.7v-3.2c0-.5.2-.7.7-.7H18.5Zm2.6,16.8a1.22,1.22,0,0,0,.9-.3c.2-.2.2-.5.2-1v-3.4H8.2a2.65,2.65,0,0,0-1.7.5,2,2,0,0,0-.5,1.4v.8a2.07,2.07,0,0,0,.5,1.5,2.46,2.46,0,0,0,1.7.5Z"/><path class="cls-1" d="M52.2,128.8c.5,0,.7.2.7.7v3.2c0,.5-.2.7-.7.7H42a10.31,10.31,0,0,0-2,.2,2.73,2.73,0,0,0-1.3.7,4,4,0,0,0-.7,1.3,10.31,10.31,0,0,0-.2,2V149c0,.6-.3.8-.8.8H33.2c-.6,0-.9-.3-.9-.8V136.6a11.3,11.3,0,0,1,.5-3.5,4.94,4.94,0,0,1,1.5-2.4,6.7,6.7,0,0,1,2.8-1.4,18,18,0,0,1,4.3-.4H52.2Z"/><path class="cls-2" d="M86,123c.6,0,.9.3.9.8v3.8a.8.8,0,0,1-.9.9H74V149c0,.6-.3.8-.8.8H69c-.6,0-.8-.3-.8-.8V128.5h-12a.8.8,0,0,1-.9-.9v-3.8c0-.6.3-.8.9-.8Z"/><path class="cls-3" d="M96.4,123c.6,0,.8.3.8.8v15.3a15.74,15.74,0,0,0,.2,2.5,3.45,3.45,0,0,0,.8,1.6,2.72,2.72,0,0,0,1.6.8,9.37,9.37,0,0,0,2.5.2h10.6a16.86,16.86,0,0,0,2.5-.2,3.45,3.45,0,0,0,1.6-.8,2.72,2.72,0,0,0,.8-1.6,9.37,9.37,0,0,0,.2-2.5V123.8c0-.6.3-.8.8-.8H123c.6,0,.8.3.8.8v15.9a16.27,16.27,0,0,1-.6,4.7,6.53,6.53,0,0,1-1.9,3.1,7.43,7.43,0,0,1-3.3,1.7,18.35,18.35,0,0,1-5,.5H102a22.4,22.4,0,0,1-4.9-.5,7.37,7.37,0,0,1-3.3-1.7,7.05,7.05,0,0,1-1.9-3.1,16.27,16.27,0,0,1-.6-4.7V123.8c0-.6.3-.8.9-.8Z"/><path class="cls-4" d="M151.4,123c2.9,0,5,.7,6.3,2s1.9,3.3,1.9,5.9v2.2a8.91,8.91,0,0,1-1.3,5.2,6.42,6.42,0,0,1-4.4,2.5l6.5,8.1a.56.56,0,0,1,.1.6.55.55,0,0,1-.6.4H155c-.3,0-.6,0-.7-.1s-.3-.2-.4-.4l-6.1-8H135.4V149c0,.6-.3.8-.8.8h-4.1c-.6,0-.9-.3-.9-.8V124.2a1,1,0,0,1,1.1-1.1h20.7Zm-15.9,13.7h14.7a4.25,4.25,0,0,0,2.8-.8,3.84,3.84,0,0,0,.8-2.6v-1.6a4,4,0,0,0-.8-2.6,3.62,3.62,0,0,0-2.8-.8H136a.47.47,0,0,0-.5.5Z"/><path class="cls-5" d="M192.4,123c.6,0,.9.3.9.8v3.6c0,.6-.3.8-.9.8H175.8a16.86,16.86,0,0,0-2.5.2,3.45,3.45,0,0,0-1.6.8,2.72,2.72,0,0,0-.8,1.6,9.37,9.37,0,0,0-.2,2.5v.8h21.5c.6,0,.8.3.8.8v3c0,.6-.3.8-.8.8H170.6v10c0,.6-.3.8-.8.8h-4.1c-.6,0-.9-.3-.9-.8V132.8a16.27,16.27,0,0,1,.6-4.7,6.53,6.53,0,0,1,1.9-3.1,8.77,8.77,0,0,1,3.3-1.8,17.75,17.75,0,0,1,4.9-.6h16.9Z"/><path class="cls-1" d="M202.3,121c.6,0,.8.3.8.8v3.6c0,.6-.3.9-.8.9h-3.8a.8.8,0,0,1-.9-.9v-3.6c0-.6.3-.8.9-.8Zm0,7.8c.6,0,.8.3.8.9V149c0,.6-.3.8-.8.8h-3.8c-.6,0-.8-.3-.8-.8V129.7c0-.6.3-.9.8-.9Z"/><path class="cls-1" d="M232.4,128.8c.5,0,.7.2.7.7v3.2c0,.5-.2.7-.7.7H217.5a12.48,12.48,0,0,0-2.1.2,2.73,2.73,0,0,0-1.3.7,4,4,0,0,0-.7,1.3,10.31,10.31,0,0,0-.2,2V141a10.31,10.31,0,0,0,.2,2,2.09,2.09,0,0,0,.7,1.3,3.16,3.16,0,0,0,1.3.7,10.61,10.61,0,0,0,2.1.2h14.9c.5,0,.7.2.7.7v3.2c0,.5-.2.7-.7.7H217a17.44,17.44,0,0,1-4.3-.4,5.71,5.71,0,0,1-2.8-1.4,4.94,4.94,0,0,1-1.5-2.4,12.3,12.3,0,0,1-.5-3.5v-5.5a11.3,11.3,0,0,1,.5-3.5,4.94,4.94,0,0,1,1.5-2.4,6.7,6.7,0,0,1,2.8-1.4,18,18,0,0,1,4.3-.4h15.4Z"/><path class="cls-1" d="M242.1,121c.6,0,.8.3.8.8v3.6c0,.6-.3.9-.8.9h-3.8a.8.8,0,0,1-.9-.9v-3.6c0-.6.3-.8.9-.8Zm0,7.8c.6,0,.8.3.8.9V149c0,.6-.3.8-.8.8h-3.8c-.6,0-.8-.3-.8-.8V129.7c0-.6.3-.9.8-.9Z"/><path class="cls-1" d="M265.6,128.8a17.44,17.44,0,0,1,4.3.4,6.7,6.7,0,0,1,2.8,1.4,4.94,4.94,0,0,1,1.5,2.4,12.3,12.3,0,0,1,.5,3.5v10.2a6.62,6.62,0,0,1-.1,1.5,1.35,1.35,0,0,1-.5.9,1.93,1.93,0,0,1-.9.5,5.72,5.72,0,0,1-1.4.1H253.6a10.88,10.88,0,0,1-2.8-.3,3.17,3.17,0,0,1-1.8-1,3.23,3.23,0,0,1-1-1.7,9,9,0,0,1-.3-2.5v-1.8a6.65,6.65,0,0,1,.3-2.1,3.36,3.36,0,0,1,1-1.6,5.24,5.24,0,0,1,1.8-1,11.43,11.43,0,0,1,2.8-.3h15.6v-.6a7.77,7.77,0,0,0-.2-1.6,1.9,1.9,0,0,0-.7-1.1,2.26,2.26,0,0,0-1.3-.6,11.49,11.49,0,0,0-2.1-.2h-16c-.5,0-.7-.2-.7-.7v-3.2c0-.5.2-.7.7-.7h16.7Zm2.5,16.8a1.22,1.22,0,0,0,.9-.3c.2-.2.2-.5.2-1v-3.4h-14a2.65,2.65,0,0,0-1.7.5,2,2,0,0,0-.5,1.4v.8a2.07,2.07,0,0,0,.5,1.5,2.46,2.46,0,0,0,1.7.5Z"/><path class="cls-1" d="M284.2,121.1c.6,0,.8.3.8.8v27c0,.6-.3.8-.8.8h-3.8c-.6,0-.8-.3-.8-.8v-27c0-.6.3-.8.8-.8Z"/></svg>