<?xml version="1.0" encoding="utf-8"?>
<!-- Generator: Adobe Illustrator 24.2.3, SVG Export Plug-In . SVG Version: 6.00 Build 0)  -->
<svg version="1.1" id="Layer_1" xmlns="http://www.w3.org/2000/svg" xmlns:xlink="http://www.w3.org/1999/xlink" x="0px" y="0px"
	 viewBox="0 0 1000 627.5" style="enable-background:new 0 0 1000 627.5;" xml:space="preserve">
<style type="text/css">
	.st0{fill:#FFFFFF;}
</style>
<path class="st0" d="M362.5,541c0,0-40.1-61.1-116.2-88.1c0,0,72.1,70.1,96.2,136.2l-326.2-0.6c-9,0-16.3,7.3-16.3,16.3
	c0,9,7.3,16.3,16.3,16.3c78.4-0.5,414.5-2.3,463-1.9c0,0-5.9-119.3,20.7-262.1c26.6,142.9,20.7,262.1,20.7,262.1
	c48.4-0.5,384.6,1.4,463,1.9c9,0.1,16.3-7.2,16.3-16.3c0-9-7.3-16.3-16.3-16.3l-326.2,0.6c24-66.1,96.2-136.2,96.2-136.2
	c-76.1,27-116.2,88.1-116.2,88.1c69.1-180.3,220.4-248.4,220.4-248.4c-15.9,1.6-31.4,5.1-46.3,9.9c-6.9,2.2-13.6,4.7-20.2,7.5
	c-8.4,3.5-16.5,7.5-24.5,11.8c-5.1,2.7-10,5.6-14.9,8.5c-85.4,52.1-141.3,138.3-141.3,138.3C649.8,296.6,819.9,95.2,819.9,95.2
	C640,189.1,567.6,425.7,567.6,425.7s-12-67-48-154.6c25.6-93.3,67-188.5,133.7-261.9c-9.8,9.3-19.2,18.8-28.2,28.5
	c-2.4,2.5-4.7,5.1-7,7.7c-6.3,7-12.4,14.1-18.3,21.3c-4.1,5-8.1,10.1-12.1,15.2c-36.8,47.7-65.6,97.9-87.8,144.8
	c-22.5-47.4-51.6-98.2-89.1-146.4c-3.5-4.6-7.1-9.1-10.8-13.6c-5.9-7.2-12-14.3-18.3-21.3c-6.3-7.1-12.8-14-19.6-20.9
	c-5.1-5.2-10.2-10.2-15.5-15.3c66.7,73.4,108,168.6,133.7,261.9c-36,87.6-48,154.6-48,154.6S360,189.1,180.1,95.2
	c0,0,170.1,201.4,209.2,373.4c0,0-54.6-84.2-138.3-136.5c-5.8-3.6-11.8-7.1-17.9-10.3c-8-4.3-16.1-8.2-24.5-11.8
	c-6.7-2.8-13.6-5.4-20.6-7.6c-14.8-4.8-30.1-8.3-46-9.8C142.1,292.6,293.4,360.7,362.5,541"/>
</svg>
